<svg id="Layer_1" data-name="Layer 1" xmlns="http://www.w3.org/2000/svg" viewBox="0 0 115.1 22.93"><defs><style>.cls-1{fill:#fff;}</style></defs><title>city_racers_logo3</title><path class="cls-1" d="M35.25,10.24c1.48,0,4.38.59,4.38,2.6v1.34H37.7v-.67c0-.82-1.41-1.26-2.37-1.26a3.65,3.65,0,0,0-3.71,3.93,3.87,3.87,0,0,0,3.78,4.08,4.94,4.94,0,0,0,3.49-1.56L40,20.26a6.48,6.48,0,0,1-4.68,2,5.81,5.81,0,0,1-5.94-6.09A5.75,5.75,0,0,1,35.25,10.24Z" transform="translate(-0.3 -0.82)"/><path class="cls-1" d="M39.71,20.26h1.19v-8H39.71V10.47h4.38v1.78H42.9v7.94h1.19V22H39.71Z" transform="translate(-0.3 -0.82)"/><path class="cls-1" d="M47.57,12.25H45.79a.35.35,0,0,0-.37.37v.67H43.56V11.43c0-.74.3-1,1-1h8.09c.82,0,1,.3,1,1v1.86H51.88v-.67a.35.35,0,0,0-.37-.37H49.72V22H47.57Z" transform="translate(-0.3 -0.82)"/><path class="cls-1" d="M56.7,17,54,12.69c-.22-.3-.3-.37-.67-.37h-.37V10.47H54a1.4,1.4,0,0,1,1.48.82l1.56,2.52c.37.67.67,1.34.67,1.34h0l.67-1.34,1.48-2.52a1.35,1.35,0,0,1,1.48-.82h1.11v1.78h-.37c-.37,0-.45.07-.67.37l-2.75,4.3v5H56.55V17Z" transform="translate(-0.3 -0.82)"/><path class="cls-1" d="M63,12.25H62V10.47h5.19A3.35,3.35,0,0,1,70.8,14a3,3,0,0,1-1.93,3h0a1.27,1.27,0,0,1,.59.59l1.11,2.23c.15.37.45.37.82.37h.22V22H70.5c-.89,0-1.26-.15-1.63-.89l-1.48-2.89c-.22-.45-.52-.52-1.11-.52H65.16V22H63Zm3.86,3.64c1.11,0,1.71-.67,1.71-1.86a1.62,1.62,0,0,0-1.71-1.78H65.16v3.64Z" transform="translate(-0.3 -0.82)"/><path class="cls-1" d="M70.73,20.26H71c.3,0,.37-.07.52-.37L75,10.47h2.23l3.41,9.42c.07.3.22.37.52.37h.3V22H80.15c-.82,0-1.11-.22-1.34-1l-.74-2H74.14l-.74,2c-.3.74-.52,1-1.34,1H70.8V20.26Zm6.75-3-1-2.89c-.22-.67-.45-1.71-.45-1.71h0a14.7,14.7,0,0,1-.45,1.71l-1,2.89Z" transform="translate(-0.3 -0.82)"/><path class="cls-1" d="M86.31,10.24c1.48,0,4.38.59,4.38,2.6v1.34H88.76v-.67c0-.82-1.41-1.26-2.37-1.26a3.65,3.65,0,0,0-3.71,3.93,3.87,3.87,0,0,0,3.78,4.08,4.94,4.94,0,0,0,3.49-1.56l1.11,1.56a6.48,6.48,0,0,1-4.68,2,5.81,5.81,0,0,1-5.94-6.09A5.8,5.8,0,0,1,86.31,10.24Z" transform="translate(-0.3 -0.82)"/><path class="cls-1" d="M91.73,12.25h-1V10.47h7a1,1,0,0,1,1.11,1.11v1.78H96.85v-.67a.35.35,0,0,0-.37-.37h-2.6v3h3.78v1.78H93.88v2.75a.35.35,0,0,0,.37.37h2.67a.35.35,0,0,0,.37-.37v-.67h1.93V21c0,.82-.37,1.11-1.11,1.11H92.84c-.82,0-1.11-.3-1.11-1.11Z" transform="translate(-0.3 -0.82)"/><path class="cls-1" d="M99.82,12.25h-1V10.47H104A3.35,3.35,0,0,1,107.61,14a3,3,0,0,1-1.93,3h0a1.27,1.27,0,0,1,.59.59l1.11,2.23c.15.37.45.37.82.37h.22V22h-1.11c-.89,0-1.26-.15-1.63-.89l-1.48-2.89c-.22-.45-.52-.52-1.11-.52H102V22H99.82V12.25Zm3.86,3.64c1.11,0,1.71-.67,1.71-1.86a1.62,1.62,0,0,0-1.71-1.78H102v3.64Z" transform="translate(-0.3 -0.82)"/><path class="cls-1" d="M108.87,18.93a4.23,4.23,0,0,0,2.82,1.34c.89,0,1.63-.45,1.63-1.34,0-2-5.42-1.78-5.42-5.42,0-1.86,1.63-3.27,3.86-3.27,1.34,0,3.41.67,3.41,2.3v1.11h-1.93v-.52c0-.52-.74-.89-1.56-.89s-1.71.52-1.71,1.26c0,2,5.42,1.56,5.42,5.42,0,1.86-1.41,3.41-3.86,3.41a5.35,5.35,0,0,1-4-1.78Z" transform="translate(-0.3 -0.82)"/><path class="cls-1" d="M23.23.82A4.39,4.39,0,0,0,18.85,5.2a5.17,5.17,0,0,0,.37,1.86l4,7.87,4-7.87a5.17,5.17,0,0,0,.37-1.86A4.34,4.34,0,0,0,23.23.82Zm0,7A2.67,2.67,0,1,1,25.9,5.2,2.66,2.66,0,0,1,23.23,7.87Zm1.34,8.31,1.63,3.19-4.08,2-1.34-6.83.22-.22h0l-.89-1.63-.45.45L14.4,9.57,9.13,13.14,5.57,9.57.3,20.19l7,3.56,7-3.56,7,3.56,7-3.56-3-5.94ZM6.76,21.45l-4.08-2,3.41-6.83L7.87,14.4l.22.22Zm6.83-2.75-4.9,2.45,1.26-6.38.22-.15,3.41-2.3Zm1.71,0V12.39l3.41,2.3.22.15,1.26,6.38Z" transform="translate(-0.3 -0.82)"/></svg>