<svg id="Layer_1" data-name="Layer 1" xmlns="http://www.w3.org/2000/svg" viewBox="0 0 155.1 30.9"><defs><style>.cls-1{fill:#fff;}</style></defs><title>city_racers_logo</title><path class="cls-1" d="M48.4,13.7c2,0,5.9.8,5.9,3.5V19H51.7v-.9c0-1.1-1.9-1.7-3.2-1.7-2.8,0-5,2-5,5.3a5.22,5.22,0,0,0,5.1,5.5,6.65,6.65,0,0,0,4.7-2.1l1.5,2.1a8.74,8.74,0,0,1-6.3,2.7,7.83,7.83,0,0,1-8-8.2A7.75,7.75,0,0,1,48.4,13.7Z" transform="translate(-1.3 -1)"/><path class="cls-1" d="M54.4,27.2H56V16.4H54.4V14h5.9v2.4H58.7V27.1h1.6v2.4H54.4Z" transform="translate(-1.3 -1)"/><path class="cls-1" d="M65,16.4H62.6a.47.47,0,0,0-.5.5v.9H59.6V15.3c0-1,.4-1.4,1.4-1.4H71.9c1.1,0,1.4.4,1.4,1.4v2.5H70.8v-.9a.47.47,0,0,0-.5-.5H67.9V29.6H65Z" transform="translate(-1.3 -1)"/><path class="cls-1" d="M77.3,22.8,73.6,17c-.3-.4-.4-.5-.9-.5h-.5V14h1.5a1.88,1.88,0,0,1,2,1.1l2.1,3.4c.5.9.9,1.8.9,1.8h0l.9-1.8,2-3.4a1.82,1.82,0,0,1,2-1.1h1.5v2.4h-.5c-.5,0-.6.1-.9.5L80,22.7v6.8H77.1V22.8Z" transform="translate(-1.3 -1)"/><path class="cls-1" d="M85.8,16.4H84.4V14h7c2.9,0,4.9,1.8,4.9,4.7s-1.9,4-2.6,4.1h0a1.71,1.71,0,0,1,.8.8l1.5,3c.2.5.6.5,1.1.5h.3v2.4H95.9c-1.2,0-1.7-.2-2.2-1.2l-2-3.9c-.3-.6-.7-.7-1.5-.7H88.7v5.8H85.8ZM91,21.3c1.5,0,2.3-.9,2.3-2.5A2.18,2.18,0,0,0,91,16.4H88.7v4.9Z" transform="translate(-1.3 -1)"/><path class="cls-1" d="M96.2,27.2h.4c.4,0,.5-.1.7-.5L101.9,14h3l4.6,12.7c.1.4.3.5.7.5h.4v2.4h-1.7c-1.1,0-1.5-.3-1.8-1.3l-1-2.7h-5.3l-1,2.7c-.4,1-.7,1.3-1.8,1.3H96.3V27.2Zm9.1-4L104,19.3c-.3-.9-.6-2.3-.6-2.3h0a19.8,19.8,0,0,1-.6,2.3l-1.3,3.9Z" transform="translate(-1.3 -1)"/><path class="cls-1" d="M117.2,13.7c2,0,5.9.8,5.9,3.5V19h-2.6v-.9c0-1.1-1.9-1.7-3.2-1.7-2.8,0-5,2-5,5.3a5.22,5.22,0,0,0,5.1,5.5,6.65,6.65,0,0,0,4.7-2.1l1.5,2.1a8.74,8.74,0,0,1-6.3,2.7,7.83,7.83,0,0,1-8-8.2A7.81,7.81,0,0,1,117.2,13.7Z" transform="translate(-1.3 -1)"/><path class="cls-1" d="M124.5,16.4h-1.4V14h9.4a1.33,1.33,0,0,1,1.5,1.5v2.4h-2.6V17a.47.47,0,0,0-.5-.5h-3.5v4.1h5.1V23h-5.1v3.7a.47.47,0,0,0,.5.5h3.6a.47.47,0,0,0,.5-.5v-.9h2.6v2.4c0,1.1-.5,1.5-1.5,1.5H126c-1.1,0-1.5-.4-1.5-1.5Z" transform="translate(-1.3 -1)"/><path class="cls-1" d="M135.4,16.4H134V14h7c2.9,0,4.9,1.8,4.9,4.7s-1.9,4-2.6,4.1h0a1.71,1.71,0,0,1,.8.8l1.5,3c.2.5.6.5,1.1.5h.3v2.4h-1.5c-1.2,0-1.7-.2-2.2-1.2l-2-3.9c-.3-.6-.7-.7-1.5-.7h-1.5v5.8h-2.9V16.4Zm5.2,4.9c1.5,0,2.3-.9,2.3-2.5a2.18,2.18,0,0,0-2.3-2.4h-2.3v4.9Z" transform="translate(-1.3 -1)"/><path class="cls-1" d="M147.6,25.4a5.7,5.7,0,0,0,3.8,1.8c1.2,0,2.2-.6,2.2-1.8,0-2.7-7.3-2.4-7.3-7.3,0-2.5,2.2-4.4,5.2-4.4,1.8,0,4.6.9,4.6,3.1v1.5h-2.6v-.7c0-.7-1-1.2-2.1-1.2-1.3,0-2.3.7-2.3,1.7,0,2.7,7.3,2.1,7.3,7.3,0,2.5-1.9,4.6-5.2,4.6a7.21,7.21,0,0,1-5.4-2.4Z" transform="translate(-1.3 -1)"/><path class="cls-1" d="M32.2,1a5.91,5.91,0,0,0-5.9,5.9,7,7,0,0,0,.5,2.5L32.2,20,37.6,9.4a7,7,0,0,0,.5-2.5A5.85,5.85,0,0,0,32.2,1Zm0,9.5a3.6,3.6,0,1,1,3.6-3.6A3.59,3.59,0,0,1,32.2,10.5ZM34,21.7,36.2,26l-5.5,2.7-1.8-9.2.3-.3h0L28,17l-.6.6-7.1-4.8-7.1,4.8L8.4,12.8,1.3,27.1l9.5,4.8,9.5-4.8,9.5,4.8,9.5-4.8-4-8ZM10,28.8,4.5,26.1l4.6-9.2,2.4,2.4.3.3Zm9.2-3.7-6.6,3.3,1.7-8.6.3-.2,4.6-3.1Zm2.3,0V16.6l4.6,3.1.3.2,1.7,8.6Z" transform="translate(-1.3 -1)"/></svg>